<svg width="22" height="22" viewBox="0 0 22 22" fill="none" xmlns="http://www.w3.org/2000/svg">
<path d="M21.0235 10.3844L11.5568 0.917635L10.6391 0L3.51296 7.12619L0.254777 10.3844C0.0916352 10.5477 0 10.7691 0 11C0 11.2309 0.0916352 11.4523 0.254777 11.6156L6.76534 18.1262L10.6391 22L17.7653 14.8738L17.8757 14.7635L21.0235 11.6156C21.1867 11.4523 21.2783 11.2309 21.2783 11C21.2783 10.7691 21.1867 10.5477 21.0235 10.3844ZM10.6391 14.2524L7.38677 11L10.6391 7.74762L13.8915 11L10.6391 14.2524Z" fill="#2684FF"/>
<path d="M10.6392 7.74761C9.61633 6.72457 9.03974 5.33836 9.03539 3.89166C9.03103 2.44496 9.59927 1.0553 10.616 0.026123L3.49854 7.1407L7.37235 11.0145L10.6392 7.74761Z" fill="url(#paint0_linear_872_8297)"/>
<path d="M13.9002 10.9913L10.6392 14.2524C11.1481 14.761 11.5518 15.3649 11.8272 16.0296C12.1027 16.6942 12.2444 17.4067 12.2444 18.1262C12.2444 18.8457 12.1027 19.5581 11.8272 20.2228C11.5518 20.8875 11.1481 21.4914 10.6392 22L17.7741 14.8651L13.9002 10.9913Z" fill="url(#paint1_linear_872_8297)"/>
<defs>
<linearGradient id="paint0_linear_872_8297" x1="10.0585" y1="4.45748" x2="5.51675" y2="8.9992" gradientUnits="userSpaceOnUse">
<stop offset="0.18" stop-color="#0052CC"/>
<stop offset="1" stop-color="#2684FF"/>
</linearGradient>
<linearGradient id="paint1_linear_872_8297" x1="287.331" y1="674.596" x2="444.192" y2="572.932" gradientUnits="userSpaceOnUse">
<stop offset="0.18" stop-color="#0052CC"/>
<stop offset="1" stop-color="#2684FF"/>
</linearGradient>
</defs>
</svg>
