<svg width="20" height="20" viewBox="0 0 20 20" fill="none" xmlns="http://www.w3.org/2000/svg">
<path fill-rule="evenodd" clip-rule="evenodd" d="M10.5009 2.20747C10.2243 1.93084 9.77582 1.93084 9.4992 2.20747C9.22258 2.48409 9.22258 2.93258 9.4992 3.2092L15.5821 9.29209H2.70833C2.31713 9.29209 2 9.60922 2 10.0004C2 10.3916 2.31713 10.7088 2.70833 10.7088H15.5823L9.4992 16.7919C9.22258 17.0685 9.22258 17.517 9.4992 17.7936C9.77582 18.0702 10.2243 18.0702 10.5009 17.7936L17.78 10.5146C17.9162 10.3855 18.0011 10.2029 18.0011 10.0004C18.0011 9.79599 17.9145 9.61178 17.776 9.48249L10.5009 2.20747Z" fill="#5D6671"/>
</svg>
