<svg width="17" height="20" viewBox="0 0 17 20" fill="none" xmlns="http://www.w3.org/2000/svg">
<path fill-rule="evenodd" clip-rule="evenodd" d="M14.4575 17.0415V19.7835H9.14809V19.3867C8.77419 19.567 8.38783 19.7234 8.00147 19.8316C7.6151 19.9399 7.21628 20 6.80499 20C5.9824 20 5.22214 19.8557 4.53666 19.5791C3.85117 19.2904 3.25293 18.9056 2.7544 18.4125C2.25587 17.9194 1.8695 17.3422 1.59531 16.6687C1.32111 16.0072 1.18402 15.2856 1.18402 14.528C1.18402 13.7703 1.32111 13.0487 1.59531 12.3993C1.76979 11.9904 1.98167 11.6055 2.23094 11.2568V11.2688H4.79839V9.40469C5.39663 9.20024 6.04472 9.10403 6.74267 9.10403C7.19135 9.10403 7.6151 9.14011 8.01393 9.22429C8.41276 9.30848 8.78666 9.42874 9.14809 9.58509V5.37583H7.64003V2.62177H12.3512V5.92904H10.9304V8.70716H12.3512V17.0295H14.4575V17.0415ZM9.67155 14.5159C9.67155 13.0487 8.48754 11.8701 7.01686 11.8701C5.54619 11.8701 4.36217 13.0487 4.36217 14.5159C4.36217 15.9832 5.54619 17.1618 7.01686 17.1618C8.48754 17.1618 9.67155 15.9832 9.67155 14.5159ZM3.97581 2.64582H6.71774V0H3.97581V2.64582ZM14.121 7.96151H17V5.1834H14.121V7.96151ZM0 9.16416H3.07844V6.19363H0V9.16416Z" fill="#199E0B"/>
</svg>
