<svg viewBox="0 0 102 18" fill="none" xmlns="http://www.w3.org/2000/svg">
<path fill-rule="evenodd" clip-rule="evenodd" d="M47.132 6.63378H44.6282V8.3622H47.132V6.63378ZM43.6063 11.4164H44.8122V17.5346H47.1115V9.78618H43.8107L43.6063 11.4164ZM37.311 7.0069H32.7225V17.5345H37.311C38.987 17.5345 40.2338 17.1123 41.0513 16.2677C41.8689 15.4231 42.2777 14.1072 42.2777 12.3198C42.2777 10.4441 41.8689 9.08886 41.0513 8.25411C40.2338 7.41937 38.987 7.0069 37.311 7.0069ZM38.66 15.541C38.241 15.7374 37.6891 15.8356 36.9942 15.8356V15.8258H35.0117V8.83353H36.984C37.7198 8.83353 38.3023 8.93173 38.7213 9.11832C39.1403 9.31473 39.4571 9.65845 39.6513 10.1593C39.8454 10.6601 39.9476 11.3771 39.9476 12.3198C39.9476 13.2528 39.8454 13.9697 39.6206 14.4803C39.3958 14.991 39.079 15.3446 38.66 15.541ZM48.8692 9.78615H51.2707L53.2738 15.3053L55.2972 9.78615H57.6783L54.5205 17.5346H52.0576L48.8692 9.78615ZM60.6727 7.0069H58.6799V17.5345H60.9793V10.5227L66.1605 17.5345H68.1533V7.0069H65.8539V14.0188L60.6727 7.0069ZM74.2747 17.6917C71.3621 17.6917 69.9007 16.3463 69.9007 13.6554C69.9007 12.3493 70.2584 11.3476 70.984 10.6602C71.7096 9.97273 72.8031 9.61919 74.2747 9.61919C75.7463 9.61919 76.8499 9.96291 77.5755 10.6602C78.3011 11.3574 78.6588 12.3493 78.6588 13.6554C78.6588 16.3463 77.1974 17.6917 74.2747 17.6917ZM74.2747 15.816C75.0207 15.816 75.5521 15.649 75.8689 15.3249C76.1755 15.0009 76.339 14.4411 76.339 13.6554C76.339 12.8698 76.1857 12.3198 75.8689 11.9859C75.5521 11.6619 75.0309 11.4949 74.2747 11.4949C73.5389 11.4949 73.0177 11.6619 72.7009 11.9859C72.3943 12.31 72.2308 12.8698 72.2308 13.6554C72.2308 14.4411 72.3841 14.991 72.7009 15.3249C73.0075 15.649 73.5389 15.816 74.2747 15.816ZM80.9582 17.0043C81.4079 17.4658 82.0926 17.6917 83.0123 17.6917C83.697 17.6917 84.3 17.5935 84.8314 17.3873V15.8651C84.4941 15.9731 84.1671 16.032 83.8503 16.032C83.4109 16.032 83.0838 15.9535 82.8897 15.7865C82.6955 15.6294 82.5933 15.3348 82.5933 14.9223V11.4753H84.4941L84.627 9.77634H82.5831V7.45869L80.2837 8.11666V9.78616H79.1392V11.4851H80.2837V15.0794C80.2837 15.9044 80.5086 16.5427 80.9582 17.0043ZM90.4214 17.6917C88.9907 17.6917 87.8767 17.348 87.0796 16.6704C86.2825 15.9927 85.8839 14.9812 85.8839 13.6358C85.8839 12.3689 86.2314 11.3869 86.9263 10.6798C87.6212 9.97273 88.6432 9.61919 89.9819 9.61919C91.2083 9.61919 92.1587 9.92363 92.8332 10.5423C93.5076 11.161 93.8449 11.9859 93.8449 13.0171V14.4214H88.0096C88.122 15.0205 88.4081 15.4428 88.868 15.6785C89.3279 15.9142 90.0024 16.0418 90.9017 16.0418C91.3309 16.0418 91.7703 16.0026 92.22 15.924C92.6696 15.8454 93.0478 15.7472 93.3646 15.6294V17.2007C92.6083 17.5346 91.6273 17.6917 90.4214 17.6917ZM91.8316 13.0662V12.6439C91.8316 11.6815 91.2389 11.2101 90.0433 11.2101C89.2972 11.2101 88.7658 11.3574 88.4592 11.6422C88.1527 11.927 87.9994 12.4082 87.9994 13.076H91.8316V13.0662ZM96.7268 17.5738C97.2684 17.6524 97.8305 17.6917 98.4232 17.6917C99.5985 17.6917 100.488 17.4952 101.101 17.073C101.704 16.6703 102 16.0909 102 15.3151C102 14.8535 101.929 14.4803 101.775 14.1857C101.622 13.8911 101.366 13.6456 101.019 13.4295C100.672 13.2233 100.161 13.0171 99.5065 12.8207L98.9444 12.6537C98.4028 12.5064 98.0451 12.3787 97.8612 12.2904C97.667 12.1921 97.575 12.0547 97.575 11.8681C97.575 11.6618 97.6977 11.5244 97.9634 11.4556C98.2188 11.3869 98.6276 11.3476 99.1693 11.3476C99.5269 11.3476 99.8948 11.3869 100.293 11.4654C100.682 11.544 101.029 11.652 101.326 11.7797V9.96288C100.999 9.84504 100.61 9.76647 100.161 9.69773C99.7109 9.62899 99.251 9.59952 98.7911 9.59952C97.5648 9.59952 96.6655 9.79593 96.0932 10.1888C95.5209 10.5816 95.2348 11.1512 95.2348 11.9074C95.2348 12.5457 95.4085 13.0269 95.7866 13.3804C96.1647 13.734 96.737 14.0384 97.5341 14.2839C97.7896 14.3723 98.0042 14.4411 98.178 14.4803C98.7605 14.6473 99.1488 14.7946 99.3532 14.9026C99.5576 15.0106 99.6598 15.1678 99.6598 15.3642C99.6598 15.5802 99.5576 15.7275 99.3328 15.7963C99.1079 15.865 98.7094 15.9043 98.1167 15.9043C97.6772 15.9043 97.2071 15.865 96.7064 15.7865C96.2056 15.6981 95.7764 15.5802 95.3983 15.4329V17.2596C95.7457 17.397 96.1852 17.4952 96.7268 17.5738Z" fill="#2B323A"/>
<path fill-rule="evenodd" clip-rule="evenodd" d="M28.0217 13.4001L21.7572 15.6785C22.0433 14.9812 22.2375 14.2447 22.3294 13.4689L25.4055 12.5163L22.3294 11.6324C22.2477 10.8468 22.0433 10.0906 21.7572 9.38352L28.0319 11.5637V13.4001H28.0217ZM0 13.4001L6.27473 15.6785C5.98858 14.9812 5.79441 14.2447 5.70244 13.4689L2.61617 12.5163L5.70244 11.6324C5.78419 10.8468 5.98858 10.0906 6.27473 9.38352L0 11.5637V13.4001ZM19.7133 14.8438V17.0828H15.3598V16.7588C15.0532 16.9061 14.7364 17.0337 14.4196 17.1221C14.1028 17.2105 13.7758 17.2596 13.4385 17.2596C12.7641 17.2596 12.1407 17.1418 11.5786 16.9159C11.0165 16.6802 10.526 16.3659 10.1172 15.9633C9.70845 15.5607 9.39165 15.0893 9.16682 14.5393C8.942 13.9992 8.82958 13.41 8.82958 12.7913C8.82958 12.1726 8.942 11.5833 9.16682 11.053C9.3099 10.7191 9.48363 10.4049 9.68801 10.1201V10.1299H11.7932V8.6077C12.2837 8.44075 12.8152 8.36219 13.3874 8.36219C13.7553 8.36219 14.1028 8.39165 14.4298 8.46039C14.7568 8.52914 15.0634 8.62734 15.3598 8.75501V5.31781H14.1232V3.06891H17.9862V5.76956H16.8212V8.03811H17.9862V14.8339H19.7133V14.8438ZM15.789 12.7814C15.789 11.5833 14.8182 10.6209 13.6123 10.6209C12.4064 10.6209 11.4355 11.5833 11.4355 12.7814C11.4355 13.9795 12.4064 14.942 13.6123 14.942C14.8182 14.942 15.789 13.9795 15.789 12.7814ZM11.1187 3.08855H13.367V0.928024H11.1187V3.08855ZM19.4373 7.42923H21.798V5.16068H19.4373V7.42923ZM7.85874 8.41129H10.3829V5.98561H7.85874V8.41129Z" fill="#199E0B"/>
</svg>
