<svg width="12" height="12" viewBox="0 0 12 12" fill="none" xmlns="http://www.w3.org/2000/svg">
<path d="M10.2857 0H1.71429C0.767512 0 0 0.767512 0 1.71429V10.2857C0 11.2325 0.767512 12 1.71429 12H10.2857C11.2325 12 12 11.2325 12 10.2857V1.71429C12 0.767512 11.2325 0 10.2857 0Z" fill="#904EE2"/>
<path fill-rule="evenodd" clip-rule="evenodd" d="M8.50557 5.7906L8.50385 5.78717C8.54328 5.72288 8.57157 5.65174 8.57157 5.57031C8.57157 5.33374 8.37957 5.14174 8.143 5.14174H6.00014V2.99888C6.00014 2.76231 5.80814 2.57031 5.57157 2.57031C5.42414 2.57031 5.30157 2.64917 5.22443 2.76146C5.20043 2.7966 5.18071 2.8326 5.16785 2.87288L3.49814 6.20203L3.49985 6.2046C3.45871 6.2706 3.42871 6.34431 3.42871 6.42746C3.42871 6.66488 3.62071 6.85603 3.85728 6.85603H6.00014V8.99888C6.00014 9.23631 6.19214 9.42746 6.42871 9.42746C6.58214 9.42746 6.71071 9.3426 6.787 9.22088L6.78957 9.22174L6.80071 9.19946C6.81014 9.18146 6.82043 9.16517 6.82728 9.14631L8.50557 5.7906Z" fill="white"/>
</svg>
