<svg width="24" height="24" viewBox="0 0 24 24" fill="none" xmlns="http://www.w3.org/2000/svg">
<path fill-rule="evenodd" clip-rule="evenodd" d="M11.1517 2.75173C11.3768 2.52677 11.6819 2.40039 12.0001 2.40039C12.3183 2.40039 12.6235 2.52677 12.8485 2.75173L21.2485 11.1517C21.4163 11.3196 21.5306 11.5334 21.5768 11.7661C21.6231 11.9988 21.5994 12.2401 21.5085 12.4593C21.4177 12.6786 21.264 12.866 21.0667 12.9978C20.8694 13.1297 20.6374 13.2001 20.4001 13.2001H19.2001V20.4001C19.2001 20.7184 19.0737 21.0236 18.8487 21.2487C18.6236 21.4737 18.3184 21.6001 18.0001 21.6001H15.6001C15.2819 21.6001 14.9767 21.4737 14.7516 21.2487C14.5266 21.0236 14.4001 20.7184 14.4001 20.4001V16.8001C14.4001 16.4819 14.2737 16.1766 14.0487 15.9516C13.8236 15.7266 13.5184 15.6001 13.2001 15.6001H10.8001C10.4819 15.6001 10.1767 15.7266 9.95161 15.9516C9.72656 16.1766 9.60013 16.4819 9.60013 16.8001V20.4001C9.60013 20.7184 9.47371 21.0236 9.24866 21.2487C9.02362 21.4737 8.71839 21.6001 8.40013 21.6001H6.00013C5.68187 21.6001 5.37665 21.4737 5.15161 21.2487C4.92656 21.0236 4.80013 20.7184 4.80013 20.4001V13.2001H3.60013C3.36283 13.2001 3.13088 13.1297 2.93358 12.9978C2.73629 12.866 2.58253 12.6786 2.49172 12.4593C2.40092 12.2401 2.37715 11.9988 2.42343 11.7661C2.46972 11.5334 2.58396 11.3196 2.75173 11.1517L11.1517 2.75173Z" fill="#B5B5B5"/>
</svg>
