<svg width="20" height="20" viewBox="0 0 20 20" fill="none" xmlns="http://www.w3.org/2000/svg">
<path d="M17.1429 0H2.85714C1.27919 0 0 1.27919 0 2.85714V17.1429C0 18.7208 1.27919 20 2.85714 20H17.1429C18.7208 20 20 18.7208 20 17.1429V2.85714C20 1.27919 18.7208 0 17.1429 0Z" fill="#904EE2"/>
<path fill-rule="evenodd" clip-rule="evenodd" d="M14.1763 9.6523L14.1734 9.64658C14.2391 9.53944 14.2863 9.42087 14.2863 9.28516C14.2863 8.89087 13.9663 8.57087 13.572 8.57087H10.0006V4.99944C10.0006 4.60516 9.68056 4.28516 9.28627 4.28516C9.04056 4.28516 8.83627 4.41658 8.7077 4.60373C8.6677 4.6623 8.63484 4.7223 8.61342 4.78944L5.83056 10.338L5.83342 10.3423C5.76484 10.4523 5.71484 10.5752 5.71484 10.7137C5.71484 11.1094 6.03484 11.428 6.42913 11.428H10.0006V14.9994C10.0006 15.3952 10.3206 15.7137 10.7148 15.7137C10.9706 15.7137 11.1848 15.5723 11.312 15.3694L11.3163 15.3709L11.3348 15.3337C11.3506 15.3037 11.3677 15.2766 11.3791 15.2452L14.1763 9.6523Z" fill="white"/>
</svg>
