<svg width="66" height="95" viewBox="0 0 66 95" fill="none" xmlns="http://www.w3.org/2000/svg">
<path d="M37.1315 69.7746L29.5261 73.1775C28.9683 73.4269 28.3107 73.4502 27.6327 73.1915C25.9887 72.5645 24.8572 70.5158 25.1043 68.6209L32.7098 65.2181C32.4626 67.1129 33.5918 69.1593 35.2381 69.7886C35.9161 70.045 36.5737 70.024 37.1315 69.7746ZM25.1043 68.6209L32.7098 65.2181L33.7279 57.3939L26.1225 60.7967L25.1043 68.6209Z" fill="url(#paint0_linear_2060_10896)"/>
<path d="M8.21539 27.7868L15.8208 24.384C17.0748 23.8223 18.5555 23.7686 20.0771 24.349L12.4716 27.7518C10.9501 27.1715 9.46936 27.2251 8.21539 27.7868ZM14.7007 28.6025L22.3061 25.1997L20.0748 24.349L12.4716 27.7518L14.7007 28.6025Z" fill="url(#paint1_linear_2060_10896)"/>
<path d="M26.9796 49.1781L34.585 45.7753C32.9955 46.4861 31.8141 48.1176 31.5238 50.3458C31.195 52.877 32.1134 55.527 33.7302 57.3939L26.1247 60.7967C24.5102 58.9298 23.5896 56.2798 23.9184 53.7486C24.2086 51.5205 25.3878 49.8913 26.9796 49.1781Z" fill="url(#paint2_linear_2060_10896)"/>
<path d="M40.3674 59.4193L32.762 62.8221C32.5397 62.9223 32.3107 63.0039 32.0726 63.0668L39.6781 59.664C39.9162 59.601 40.1452 59.5195 40.3674 59.4193Z" fill="black"/>
<path d="M21.9932 20.5686L29.5986 17.1657L28.2562 27.4698L20.6508 30.8727L21.9932 20.5686Z" fill="#016936"/>
<path d="M57.7868 91.1497L50.1814 94.5525C51.9705 93.7531 53.2993 91.9188 53.6258 89.4133L61.2313 86.0104C60.9047 88.516 59.5759 90.3502 57.7868 91.1497Z" fill="url(#paint3_linear_2060_10896)"/>
<path d="M28.1133 11.4298L35.7188 8.02698C32.5374 9.45105 30.1791 12.7117 29.5986 17.1657L21.9932 20.5686C22.5737 16.1146 24.9342 12.8539 28.1133 11.4298Z" fill="#016936"/>
<path d="M58.3197 53.3524L65.9252 49.9496L61.229 86.0105L53.6259 89.4133L58.3197 53.3524Z" fill="url(#paint4_linear_2060_10896)"/>
<path d="M20.6508 30.8727L28.2562 27.4698L52.0544 36.548L44.4489 39.9508L20.6508 30.8727ZM52.6326 43.0717L60.2381 39.6688L58.0068 38.8181L50.4013 42.2209L52.6326 43.0717ZM58.3197 53.3524L65.9251 49.9496C66.4807 45.6891 63.9251 41.0766 60.2381 39.6688L52.6326 43.0717C56.3197 44.4771 58.8752 49.0896 58.3197 53.3524Z" fill="url(#paint5_linear_2060_10896)"/>
<path d="M51.7437 31.9168L59.3492 28.514L58.0068 38.8181L50.4013 42.2209L51.7437 31.9168Z" fill="#016936"/>
<path d="M52.6326 43.0716C56.3197 44.4794 58.8753 49.0895 58.3197 53.3524L53.6236 89.4156C53.068 93.6785 49.6122 95.9975 45.9229 94.5898L5.76416 79.2676C2.07482 77.8599 -0.478466 73.2497 0.0770894 68.9868L4.77323 32.9237C5.32879 28.6631 8.78457 26.3417 12.4739 27.7495L14.7052 28.6002L16.0476 18.2984C17.5283 6.93386 26.737 0.745809 36.5805 4.50059C46.424 8.25538 53.2267 20.5522 51.7483 31.9168L50.4059 42.2186L52.6326 43.0716ZM44.4512 39.9508L45.7936 29.649C46.78 22.0719 42.2449 13.8747 35.6825 11.3715C29.1202 8.86836 22.9796 12.9937 21.9932 20.5709L20.6508 30.8726L44.4512 39.9508ZM32.0748 63.0668C34 62.5494 35.4898 60.82 35.8209 58.2889C36.3152 54.5014 34.0453 50.4017 30.7642 49.1501C27.483 47.8985 24.4127 49.9612 23.9184 53.751C23.5896 56.2821 24.5079 58.9321 26.1247 60.799L25.1066 68.6233C24.8594 70.5181 25.9887 72.5645 27.6349 73.1938C29.2789 73.8208 30.8095 72.7883 31.0567 70.8934L32.0748 63.0668Z" fill="url(#paint6_linear_2060_10896)"/>
<path d="M25.2245 4.59149L32.83 1.18865C36.1747 -0.307671 40.1248 -0.449844 44.1815 1.09775C54.025 4.85253 60.8277 17.1494 59.3493 28.514L51.7438 31.9168C53.2245 20.5522 46.4218 8.25538 36.576 4.5006C32.5193 2.953 28.5692 3.09517 25.2245 4.59149Z" fill="url(#paint7_linear_2060_10896)"/>
<defs>
<linearGradient id="paint0_linear_2060_10896" x1="29.7733" y1="81.6233" x2="32.4732" y2="58.0008" gradientUnits="userSpaceOnUse">
<stop stop-color="#32B44A"/>
<stop offset="0.1944" stop-color="#30AC49"/>
<stop offset="0.4276" stop-color="#299E46"/>
<stop offset="0.6807" stop-color="#1D8940"/>
<stop offset="0.9462" stop-color="#066E38"/>
<stop offset="1" stop-color="#016936"/>
</linearGradient>
<linearGradient id="paint1_linear_2060_10896" x1="10.3161" y1="30.5147" x2="20.4127" y2="22.7401" gradientUnits="userSpaceOnUse">
<stop stop-color="#32B44A"/>
<stop offset="1" stop-color="#016936"/>
</linearGradient>
<linearGradient id="paint2_linear_2060_10896" x1="27.8406" y1="60.7333" x2="29.9994" y2="49.9266" gradientUnits="userSpaceOnUse">
<stop stop-color="#32B44A"/>
<stop offset="0.1944" stop-color="#30AC49"/>
<stop offset="0.4276" stop-color="#299E46"/>
<stop offset="0.6807" stop-color="#1D8940"/>
<stop offset="0.9462" stop-color="#066E38"/>
<stop offset="1" stop-color="#016936"/>
</linearGradient>
<linearGradient id="paint3_linear_2060_10896" x1="50.181" y1="90.2822" x2="61.2301" y2="90.2822" gradientUnits="userSpaceOnUse">
<stop stop-color="#006635"/>
<stop offset="1" stop-color="#016936"/>
</linearGradient>
<linearGradient id="paint4_linear_2060_10896" x1="58.4617" y1="89.7483" x2="61.2362" y2="49.6245" gradientUnits="userSpaceOnUse">
<stop stop-color="#006635"/>
<stop offset="1" stop-color="#016936"/>
</linearGradient>
<linearGradient id="paint5_linear_2060_10896" x1="44.7479" y1="39.9013" x2="63.7025" y2="48.0519" gradientUnits="userSpaceOnUse">
<stop stop-color="#32B44A"/>
<stop offset="1" stop-color="#016936"/>
</linearGradient>
<linearGradient id="paint6_linear_2060_10896" x1="37.5966" y1="8.78331" x2="22.4623" y2="98.1505" gradientUnits="userSpaceOnUse">
<stop stop-color="#32B44A"/>
<stop offset="0.1944" stop-color="#30AC49"/>
<stop offset="0.4276" stop-color="#299E46"/>
<stop offset="0.6807" stop-color="#1D8940"/>
<stop offset="0.9462" stop-color="#066E38"/>
<stop offset="1" stop-color="#016936"/>
</linearGradient>
<linearGradient id="paint7_linear_2060_10896" x1="44.5464" y1="0.751823" x2="40.1044" y2="30.1597" gradientUnits="userSpaceOnUse">
<stop stop-color="#32B44A"/>
<stop offset="1" stop-color="#016936"/>
</linearGradient>
</defs>
</svg>
