<svg width="17" height="17" viewBox="0 0 17 17" fill="none" xmlns="http://www.w3.org/2000/svg">
<path d="M12.2176 1.61953C12.414 1.42311 12.6471 1.26731 12.9038 1.16101C13.1604 1.05471 13.4355 1 13.7132 1C13.991 1 14.266 1.05471 14.5227 1.16101C14.7793 1.26731 15.0125 1.42311 15.2089 1.61953C15.4053 1.81594 15.5611 2.04912 15.6674 2.30575C15.7737 2.56238 15.8284 2.83743 15.8284 3.1152C15.8284 3.39297 15.7737 3.66803 15.6674 3.92465C15.5611 4.18128 15.4053 4.41446 15.2089 4.61088L5.1131 14.7067L1 15.8284L2.12176 11.7153L12.2176 1.61953Z" stroke="#5D6671" stroke-width="1.49567" stroke-linecap="round" stroke-linejoin="round"/>
</svg>
