<svg width="16" height="16" viewBox="0 0 16 16" fill="none" xmlns="http://www.w3.org/2000/svg">
<path d="M11.4158 1.19988C11.8647 0.751169 12.4734 0.49915 13.1081 0.499268C13.7428 0.499385 14.3515 0.751628 14.8002 1.20051C15.2489 1.64939 15.5009 2.25813 15.5008 2.89282C15.5007 3.52752 15.2484 4.13617 14.7996 4.58488L13.8833 5.49988L10.4971 2.11738L11.4146 1.19988H11.4158ZM9.61581 3.00113L2.17081 10.4436C1.94483 10.6698 1.77451 10.9454 1.67331 11.2486L0.530813 14.6774C0.494315 14.7874 0.489133 14.9054 0.515846 15.0182C0.54256 15.131 0.600116 15.2341 0.682082 15.3161C0.764047 15.3981 0.867193 15.4556 0.97999 15.4823C1.09279 15.5091 1.21079 15.5039 1.32081 15.4674L4.74956 14.3249C5.05331 14.2249 5.32831 14.0536 5.55456 13.8274L12.9996 6.38488L9.61456 3.00113H9.61581Z" fill="#5D6671"/>
</svg>
