<svg width="29" height="17" viewBox="0 0 29 17" fill="none" xmlns="http://www.w3.org/2000/svg">
<path fill-rule="evenodd" clip-rule="evenodd" d="M28.0217 12.4721L21.7572 14.7505C22.0433 14.0532 22.2375 13.3167 22.3294 12.5409L25.4055 11.5883L22.3294 10.7044C22.2477 9.91876 22.0433 9.16258 21.7572 8.4555L28.0319 10.6357V12.4721H28.0217ZM0 12.4721L6.27473 14.7505C5.98858 14.0532 5.79441 13.3167 5.70244 12.5409L2.61617 11.5883L5.70244 10.7044C5.78419 9.91876 5.98858 9.16258 6.27473 8.4555L0 10.6357V12.4721ZM19.7133 13.9157V16.1548H15.3598V15.8307C15.0532 15.978 14.7364 16.1057 14.4196 16.1941C14.1028 16.2825 13.7758 16.3316 13.4385 16.3316C12.7641 16.3316 12.1407 16.2137 11.5786 15.9879C11.0165 15.7522 10.526 15.4379 10.1172 15.0353C9.70845 14.6326 9.39165 14.1612 9.16682 13.6113C8.942 13.0712 8.82958 12.4819 8.82958 11.8632C8.82958 11.2445 8.942 10.6553 9.16682 10.125C9.3099 9.7911 9.48363 9.47684 9.68801 9.19204V9.20186H11.7932V7.67968C12.2837 7.51273 12.8152 7.43416 13.3874 7.43416C13.7553 7.43416 14.1028 7.46362 14.4298 7.53237C14.7568 7.60111 15.0634 7.69932 15.3598 7.82698V4.38979H14.1232V2.14088H17.9862V4.84153H16.8212V7.11008H17.9862V13.9059H19.7133V13.9157ZM15.789 11.8534C15.789 10.6553 14.8182 9.69289 13.6123 9.69289C12.4064 9.69289 11.4355 10.6553 11.4355 11.8534C11.4355 13.0515 12.4064 14.0139 13.6123 14.0139C14.8182 14.0139 15.789 13.0515 15.789 11.8534ZM11.1187 2.16052H13.367V0H11.1187V2.16052ZM19.4373 6.50121H21.798V4.23266H19.4373V6.50121ZM7.85874 7.48326H10.3829V5.05759H7.85874V7.48326Z" fill="#199E0B"/>
</svg>
