<svg width="12" height="12" viewBox="0 0 12 12" fill="none" xmlns="http://www.w3.org/2000/svg">
<path d="M10.2857 0H1.71429C0.767512 0 0 0.767512 0 1.71429V10.2857C0 11.2325 0.767512 12 1.71429 12H10.2857C11.2325 12 12 11.2325 12 10.2857V1.71429C12 0.767512 11.2325 0 10.2857 0Z" fill="#4BADE8"/>
<path d="M10.2857 0H1.71429C0.767512 0 0 0.767512 0 1.71429V10.2857C0 11.2325 0.767512 12 1.71429 12H10.2857C11.2325 12 12 11.2325 12 10.2857V1.71429C12 0.767512 11.2325 0 10.2857 0Z" fill="#4BAEE8"/>
<path fill-rule="evenodd" clip-rule="evenodd" d="M3.08333 2.83333C2.94526 2.83333 2.83333 2.94526 2.83333 3.08333V5.91667C2.83333 6.05474 2.94526 6.16667 3.08333 6.16667H5.91667C6.05474 6.16667 6.16667 6.05474 6.16667 5.91667V3.08333C6.16667 2.94526 6.05474 2.83333 5.91667 2.83333H3.08333ZM2 3.08333C2 2.48502 2.48502 2 3.08333 2H5.91667C6.51497 2 7 2.48502 7 3.08333V5.91667C7 6.51498 6.51498 7 5.91667 7H3.08333C2.48502 7 2 6.51497 2 5.91667V3.08333Z" fill="white"/>
<path fill-rule="evenodd" clip-rule="evenodd" d="M5.82913 4.71484C5.21373 4.71484 4.71484 5.21373 4.71484 5.82913V8.74341C4.71484 9.35882 5.21373 9.8577 5.82913 9.8577H8.74341C9.35882 9.8577 9.8577 9.35882 9.8577 8.74341V5.82913C9.8577 5.21373 9.35882 4.71484 8.74341 4.71484H5.82913Z" fill="white"/>
</svg>
