<svg width="20" height="20" viewBox="0 0 20 20" fill="none" xmlns="http://www.w3.org/2000/svg">
<path d="M9.99943 15.3729C8.7597 15.3725 7.56223 14.9223 6.62917 14.106C5.69614 13.2897 5.09087 12.1627 4.92572 10.934C4.76053 9.7053 5.04667 8.45844 5.73099 7.42469C6.41534 6.39098 7.45144 5.64057 8.64701 5.31273V6.80329C7.84292 7.11852 7.17413 7.70466 6.75614 8.46045C6.33811 9.21625 6.19716 10.0943 6.35758 10.943C6.51799 11.7916 6.9697 12.5576 7.6347 13.1087C8.29974 13.6598 9.13633 13.9614 10 13.9614C10.8637 13.9614 11.7003 13.6598 12.3653 13.1087C13.0303 12.5576 13.482 11.7916 13.6424 10.943C13.8028 10.0943 13.6619 9.21625 13.2439 8.46045C12.8259 7.70466 12.1571 7.11852 11.353 6.80329V5.31273C12.5487 5.6406 13.5848 6.3911 14.2692 7.42492C14.9535 8.45879 15.2395 9.70579 15.0742 10.9345C14.9089 12.1633 14.3034 13.2904 13.3702 14.1066C12.4369 14.9228 11.2392 15.3728 9.99943 15.3729ZM9.26447 3.60202H10.7355V10.8989H9.26447V3.60202ZM9.99943 6.57455e-08C8.02163 0.000113451 6.0883 0.586701 4.4439 1.68558C2.79947 2.78446 1.51783 4.34629 0.761046 6.17356C0.00425621 8.00083 -0.193695 10.0115 0.192222 11.9512C0.57814 13.891 1.53059 15.6728 2.92914 17.0712C4.32769 18.4697 6.10951 19.4221 8.04932 19.8079C9.98909 20.1937 11.9997 19.9956 13.827 19.2387C15.6542 18.4818 17.2159 17.2001 18.3147 15.5556C19.4135 13.9112 20 11.9778 20 10C20.0001 8.6867 19.7414 7.38629 19.2389 6.17295C18.7363 4.95962 17.9997 3.85716 17.071 2.92856C16.1424 1.99995 15.0399 1.26337 13.8265 0.760886C12.6132 0.2584 11.3127 -0.000150526 9.99943 6.57455e-08Z" fill="#E57CD8"/>
</svg>
