<svg width="20" height="20" viewBox="0 0 20 20" fill="none" xmlns="http://www.w3.org/2000/svg">
<path d="M4.00043 6V16.56C3.99578 16.7447 4.02908 16.9285 4.09843 17.1008C4.16778 17.2732 4.27182 17.4307 4.40461 17.5644C4.5374 17.6982 4.69634 17.8055 4.87233 17.8802C5.04833 17.9549 5.23794 17.9956 5.43033 18H14.5447C14.7392 17.9988 14.9315 17.9604 15.1104 17.887C15.2893 17.8137 15.4512 17.7069 15.5866 17.5728C15.722 17.4388 15.8283 17.2802 15.8992 17.1063C15.9701 16.9324 16.0042 16.7467 15.9996 16.56V6H4.00043ZM8.50011 15.6H7.50018V8.4H8.50011V15.6ZM12.4998 15.6H11.4999V8.4H12.4998V15.6Z" fill="#5D6671"/>
<path d="M16.4951 3.8H12.5925V3.2C12.5925 2.88174 12.4861 2.57652 12.2968 2.35147C12.1074 2.12643 11.8506 2 11.5828 2H8.45258C8.20265 2.02985 7.97105 2.16934 7.80301 2.39123C7.63497 2.61312 7.54256 2.90148 7.54382 3.2V3.8H3.50487C3.37097 3.8 3.24255 3.86321 3.14787 3.97574C3.05319 4.08826 3 4.24087 3 4.4C3 4.55913 3.05319 4.71174 3.14787 4.82426C3.24255 4.93679 3.37097 5 3.50487 5H16.4951C16.629 5 16.7574 4.93679 16.8521 4.82426C16.9468 4.71174 17 4.55913 17 4.4C17 4.24087 16.9468 4.08826 16.8521 3.97574C16.7574 3.86321 16.629 3.8 16.4951 3.8Z" fill="#5D6671"/>
</svg>
