<svg width="20" height="20" viewBox="0 0 20 20" fill="none" xmlns="http://www.w3.org/2000/svg">
<path fill-rule="evenodd" clip-rule="evenodd" d="M8.13959 3.94038C8.26149 3.81848 8.42682 3.75 8.59921 3.75H11.3992C11.5716 3.75 11.7369 3.81848 11.8588 3.94038C11.9807 4.06228 12.0492 4.22761 12.0492 4.4V5.05005H7.94921V4.4C7.94921 4.22761 8.01769 4.06228 8.13959 3.94038ZM6.44921 5.05005V4.4C6.44921 3.82978 6.67573 3.28292 7.07893 2.87972C7.48214 2.47652 8.029 2.25 8.59921 2.25H11.3992C11.9694 2.25 12.5163 2.47652 12.9195 2.87972C13.3227 3.28292 13.5492 3.82978 13.5492 4.4V5.05005H14.8906L14.8992 5.05L14.9079 5.05005H16.2992C16.7134 5.05005 17.0492 5.38584 17.0492 5.80005C17.0492 6.21426 16.7134 6.55005 16.2992 6.55005H15.6492V15.6C15.6492 16.1702 15.4227 16.7171 15.0195 17.1203C14.6163 17.5235 14.0694 17.75 13.4992 17.75H6.49921C5.929 17.75 5.38214 17.5235 4.97893 17.1203C4.57573 16.7171 4.34921 16.1702 4.34921 15.6V6.55005H3.69922C3.28501 6.55005 2.94922 6.21426 2.94922 5.80005C2.94922 5.38584 3.28501 5.05005 3.69922 5.05005H5.09056L5.09921 5.05L5.10786 5.05005H6.44921ZM5.84921 6.55005V15.6C5.84921 15.7724 5.91769 15.9377 6.03959 16.0596C6.16149 16.1815 6.32682 16.25 6.49921 16.25H13.4992C13.6716 16.25 13.8369 16.1815 13.9588 16.0596C14.0807 15.9377 14.1492 15.7724 14.1492 15.6V6.55005H5.84921ZM8.59921 8.55005C9.01343 8.55005 9.34921 8.88584 9.34921 9.30005V13.5C9.34921 13.9143 9.01343 14.25 8.59921 14.25C8.185 14.25 7.84921 13.9143 7.84921 13.5V9.30005C7.84921 8.88584 8.185 8.55005 8.59921 8.55005ZM12.1492 9.30005C12.1492 8.88584 11.8134 8.55005 11.3992 8.55005C10.985 8.55005 10.6492 8.88584 10.6492 9.30005V13.5C10.6492 13.9143 10.985 14.25 11.3992 14.25C11.8134 14.25 12.1492 13.9143 12.1492 13.5V9.30005Z" fill="#5D6671"/>
</svg>
