<svg width="41" height="41" viewBox="0 0 41 41" fill="none" xmlns="http://www.w3.org/2000/svg">
<circle cx="20.5" cy="20.5" r="20.5" fill="#A0BDF2"/>
<path d="M30.5222 31.775V29.2694C30.5222 27.9404 29.9942 26.6658 29.0544 25.726C28.1147 24.7863 26.8401 24.2583 25.5111 24.2583H15.4888C14.1598 24.2583 12.8852 24.7863 11.9454 25.726C11.0057 26.6658 10.4777 27.9404 10.4777 29.2694V31.775" stroke="white" stroke-opacity="0.53" stroke-width="2.50556" stroke-linecap="round" stroke-linejoin="round"/>
<path d="M20.5001 19.2473C23.2676 19.2473 25.5112 17.0038 25.5112 14.2362C25.5112 11.4686 23.2676 9.2251 20.5001 9.2251C17.7325 9.2251 15.489 11.4686 15.489 14.2362C15.489 17.0038 17.7325 19.2473 20.5001 19.2473Z" stroke="white" stroke-opacity="0.53" stroke-width="2.50556" stroke-linecap="round" stroke-linejoin="round"/>
</svg>
