<svg viewBox="0 0 102 17" fill="none" xmlns="http://www.w3.org/2000/svg">
<path fill-rule="evenodd" clip-rule="evenodd" d="M47.1319 5.70508H44.6281V7.43349H47.1319V5.70508ZM43.6062 10.4877H44.8121V16.6059H47.1115V8.85747H43.8106L43.6062 10.4877ZM37.3109 6.0782H32.7224V16.6058H37.3109C38.9869 16.6058 40.2337 16.1836 41.0512 15.339C41.8688 14.4944 42.2776 13.1785 42.2776 11.3911C42.2776 9.51539 41.8688 8.16016 41.0512 7.32541C40.2337 6.49066 38.9869 6.0782 37.3109 6.0782ZM38.6599 14.6123C38.2409 14.8087 37.6891 14.9069 36.9941 14.9069V14.8971H35.0116V7.90482H36.9839C37.7197 7.90482 38.3022 8.00303 38.7212 8.18962C39.1402 8.38603 39.457 8.72975 39.6512 9.2306C39.8454 9.73145 39.9475 10.4483 39.9475 11.3911C39.9475 12.3241 39.8454 13.041 39.6205 13.5516C39.3957 14.0623 39.0789 14.4159 38.6599 14.6123ZM48.8691 8.85745H51.2707L53.2737 14.3766L55.2971 8.85745H57.6782L54.5204 16.6059H52.0576L48.8691 8.85745ZM60.6726 6.0782H58.6798V16.6058H60.9792V9.59396L66.1604 16.6058H68.1532V6.0782H65.8539V13.0901L60.6726 6.0782ZM74.2745 16.7639C71.362 16.7639 69.9006 15.4185 69.9006 12.7277C69.9006 11.4215 70.2583 10.4198 70.9839 9.73239C71.7095 9.04495 72.803 8.69141 74.2745 8.69141C75.7461 8.69141 76.8498 9.03513 77.5754 9.73239C78.301 10.4296 78.6587 11.4215 78.6587 12.7277C78.6587 15.4185 77.1973 16.7639 74.2745 16.7639ZM74.2745 14.8882C75.0206 14.8882 75.552 14.7212 75.8688 14.3972C76.1754 14.0731 76.3389 13.5133 76.3389 12.7277C76.3389 11.942 76.1856 11.3921 75.8688 11.0582C75.552 10.7341 75.0308 10.5671 74.2745 10.5671C73.5387 10.5671 73.0176 10.7341 72.7008 11.0582C72.3942 11.3822 72.2307 11.942 72.2307 12.7277C72.2307 13.5133 72.384 14.0633 72.7008 14.3972C73.0073 14.7212 73.5387 14.8882 74.2745 14.8882ZM80.9582 16.0749C81.4079 16.5364 82.0926 16.7623 83.0123 16.7623C83.697 16.7623 84.3 16.6641 84.8314 16.4579V14.9357C84.4941 15.0437 84.1671 15.1026 83.8503 15.1026C83.4109 15.1026 83.0839 15.0241 82.8897 14.8571C82.6955 14.7 82.5933 14.4054 82.5933 13.9929V10.5459H84.4941L84.627 8.84695H82.5831V6.5293L80.2837 7.18727V8.85677H79.1392V10.5557H80.2837V14.15C80.2837 14.975 80.5086 15.6133 80.9582 16.0749ZM90.4212 16.7639C88.9905 16.7639 87.8766 16.4202 87.0795 15.7426C86.2823 15.0649 85.8838 14.0534 85.8838 12.708C85.8838 11.4412 86.2312 10.4591 86.9262 9.75203C87.6211 9.04495 88.643 8.69141 89.9818 8.69141C91.2081 8.69141 92.1585 8.99584 92.833 9.61454C93.5075 10.2332 93.8447 11.0582 93.8447 12.0893V13.4937H88.0094C88.1218 14.0927 88.408 14.515 88.8679 14.7507C89.3277 14.9864 90.0022 15.1141 90.9015 15.1141C91.3307 15.1141 91.7702 15.0748 92.2198 14.9962C92.6695 14.9176 93.0476 14.8194 93.3644 14.7016V16.2729C92.6082 16.6068 91.6271 16.7639 90.4212 16.7639ZM91.8315 12.1384V11.7161C91.8315 10.7537 91.2388 10.2823 90.0431 10.2823C89.2971 10.2823 88.7657 10.4296 88.4591 10.7144C88.1525 10.9992 87.9992 11.4804 87.9992 12.1482H91.8315V12.1384ZM96.7266 16.6442C97.2683 16.7228 97.8303 16.7621 98.4231 16.7621C99.5983 16.7621 100.487 16.5656 101.101 16.1434C101.704 15.7407 102 15.1613 102 14.3855C102 13.9239 101.928 13.5507 101.775 13.2561C101.622 12.9615 101.366 12.716 101.019 12.4999C100.671 12.2937 100.16 12.0875 99.5063 11.8911L98.9443 11.7241C98.4026 11.5768 98.045 11.4491 97.861 11.3608C97.6668 11.2625 97.5749 11.1251 97.5749 10.9385C97.5749 10.7322 97.6975 10.5947 97.9632 10.526C98.2187 10.4573 98.6275 10.418 99.1691 10.418C99.5268 10.418 99.8947 10.4573 100.293 10.5358C100.682 10.6144 101.029 10.7224 101.325 10.8501V9.03328C100.998 8.91544 100.61 8.83687 100.16 8.76813C99.7107 8.69938 99.2509 8.66992 98.791 8.66992C97.5646 8.66992 96.6653 8.86633 96.093 9.25915C95.5208 9.65198 95.2346 10.2216 95.2346 10.9778C95.2346 11.6161 95.4083 12.0973 95.7865 12.4508C96.1646 12.8044 96.7369 13.1088 97.534 13.3543C97.7895 13.4427 98.0041 13.5115 98.1778 13.5507C98.7603 13.7177 99.1487 13.865 99.353 13.973C99.5574 14.081 99.6596 14.2382 99.6596 14.4346C99.6596 14.6506 99.5574 14.7979 99.3326 14.8667C99.1078 14.9354 98.7092 14.9747 98.1165 14.9747C97.6771 14.9747 97.207 14.9354 96.7062 14.8569C96.2055 14.7685 95.7762 14.6506 95.3981 14.5033V16.33C95.7456 16.4674 96.185 16.5656 96.7266 16.6442Z" fill="#2B323A"/>
<path fill-rule="evenodd" clip-rule="evenodd" d="M28.0217 12.4721L21.7572 14.7505C22.0433 14.0532 22.2375 13.3167 22.3294 12.5409L25.4055 11.5883L22.3294 10.7044C22.2477 9.91876 22.0433 9.16258 21.7572 8.4555L28.0319 10.6357V12.4721H28.0217ZM0 12.4721L6.27473 14.7505C5.98858 14.0532 5.79441 13.3167 5.70244 12.5409L2.61617 11.5883L5.70244 10.7044C5.78419 9.91876 5.98858 9.16258 6.27473 8.4555L0 10.6357V12.4721ZM19.7133 13.9157V16.1548H15.3598V15.8307C15.0532 15.978 14.7364 16.1057 14.4196 16.1941C14.1028 16.2825 13.7758 16.3316 13.4385 16.3316C12.7641 16.3316 12.1407 16.2137 11.5786 15.9879C11.0165 15.7522 10.526 15.4379 10.1172 15.0353C9.70845 14.6326 9.39165 14.1612 9.16682 13.6113C8.942 13.0712 8.82958 12.4819 8.82958 11.8632C8.82958 11.2445 8.942 10.6553 9.16682 10.125C9.3099 9.7911 9.48363 9.47684 9.68801 9.19204V9.20186H11.7932V7.67968C12.2837 7.51273 12.8152 7.43416 13.3874 7.43416C13.7553 7.43416 14.1028 7.46362 14.4298 7.53237C14.7568 7.60111 15.0634 7.69932 15.3598 7.82698V4.38979H14.1232V2.14088H17.9862V4.84153H16.8212V7.11008H17.9862V13.9059H19.7133V13.9157ZM15.789 11.8534C15.789 10.6553 14.8182 9.69289 13.6123 9.69289C12.4064 9.69289 11.4355 10.6553 11.4355 11.8534C11.4355 13.0515 12.4064 14.0139 13.6123 14.0139C14.8182 14.0139 15.789 13.0515 15.789 11.8534ZM11.1187 2.16052H13.367V0H11.1187V2.16052ZM19.4373 6.50121H21.798V4.23266H19.4373V6.50121ZM7.85874 7.48326H10.3829V5.05759H7.85874V7.48326Z" fill="#199E0B"/>
</svg>
