<svg width="14" height="14" viewBox="0 0 14 14" fill="none" xmlns="http://www.w3.org/2000/svg">
<path d="M7 0C3.13306 0 0 3.13306 0 7C0 10.8669 3.13306 14 7 14C10.8669 14 14 10.8669 14 7C14 3.13306 10.8669 0 7 0ZM7 2.70968C8.37177 2.70968 9.48387 3.82177 9.48387 5.19355C9.48387 6.56532 8.37177 7.67742 7 7.67742C5.62823 7.67742 4.51613 6.56532 4.51613 5.19355C4.51613 3.82177 5.62823 2.70968 7 2.70968ZM7 12.4194C5.34314 12.4194 3.85847 11.6685 2.86492 10.4944C3.39556 9.49516 4.43427 8.80645 5.64516 8.80645C5.7129 8.80645 5.78065 8.81774 5.84556 8.8375C6.2125 8.95605 6.59637 9.03226 7 9.03226C7.40363 9.03226 7.79032 8.95605 8.15444 8.8375C8.21935 8.81774 8.2871 8.80645 8.35484 8.80645C9.56573 8.80645 10.6044 9.49516 11.1351 10.4944C10.1415 11.6685 8.65685 12.4194 7 12.4194Z" fill="#5D6671"/>
</svg>
