<svg width="16" height="12" viewBox="0 0 16 12" fill="none" xmlns="http://www.w3.org/2000/svg">
<path d="M4.00002 6.75C4.00086 6.8159 3.9885 6.88129 3.96367 6.94234C3.93884 7.00338 3.90204 7.05883 3.85544 7.10543C3.80885 7.15203 3.75339 7.18882 3.69235 7.21365C3.63131 7.23848 3.56591 7.25084 3.50002 7.25H0.75002C0.657132 7.24925 0.566195 7.22327 0.486933 7.17483C0.407671 7.12639 0.343064 7.05732 0.30002 6.97501C0.259993 6.89118 0.243502 6.79805 0.252309 6.70558C0.261116 6.61311 0.29489 6.52477 0.35002 6.45C0.792512 5.85602 1.38297 5.3884 2.06252 5.09375C1.77052 4.82646 1.54616 4.49364 1.40793 4.12269C1.26969 3.75174 1.22152 3.35326 1.26738 2.96005C1.31325 2.56685 1.45183 2.19016 1.67174 1.86098C1.89164 1.5318 2.18657 1.25955 2.53225 1.06664C2.87793 0.87372 3.26449 0.765654 3.6601 0.751332C4.05571 0.73701 4.44907 0.816841 4.8078 0.984255C5.16653 1.15167 5.48037 1.40188 5.7235 1.7143C5.96663 2.02671 6.13209 2.3924 6.20627 2.78125C6.22476 2.88253 6.21193 2.98704 6.1695 3.08084C6.12707 3.17464 6.05704 3.25328 5.96877 3.30625C5.16041 3.7856 4.54561 4.53309 4.23127 5.41875C4.07631 5.8454 3.99802 6.29609 4.00002 6.75V6.75ZM15.65 6.45C15.2075 5.85602 14.6171 5.3884 13.9375 5.09375C14.2295 4.82646 14.4539 4.49364 14.5921 4.12269C14.7304 3.75174 14.7785 3.35326 14.7327 2.96005C14.6868 2.56685 14.5482 2.19016 14.3283 1.86098C14.1084 1.5318 13.8135 1.25955 13.4678 1.06664C13.1221 0.87372 12.7355 0.765654 12.3399 0.751332C11.9443 0.73701 11.551 0.816841 11.1922 0.984255C10.8335 1.15167 10.5197 1.40188 10.2765 1.7143C10.0334 2.02671 9.86795 2.3924 9.79377 2.78125C9.77528 2.88253 9.78811 2.98704 9.83054 3.08084C9.87297 3.17464 9.943 3.25328 10.0313 3.30625C10.8407 3.78437 11.4558 4.53229 11.7688 5.41875C11.9237 5.8454 12.002 6.29609 12 6.75C11.9992 6.8159 12.0115 6.88129 12.0364 6.94234C12.0612 7.00338 12.098 7.05883 12.1446 7.10543C12.1912 7.15203 12.2466 7.18882 12.3077 7.21365C12.3687 7.23848 12.4341 7.25084 12.5 7.25H15.25C15.3429 7.25 15.4339 7.22415 15.5129 7.17533C15.5919 7.12651 15.6557 7.05666 15.6972 6.97361C15.7388 6.89056 15.7563 6.79758 15.748 6.7051C15.7397 6.61262 15.7057 6.52429 15.65 6.45ZM9.82502 9.13126C10.3226 8.74985 10.6882 8.22212 10.8705 7.62223C11.0527 7.02233 11.0424 6.38041 10.8411 5.78666C10.6397 5.19291 10.2574 4.67717 9.74778 4.31191C9.2382 3.94664 8.62699 3.75021 8.00002 3.75021C7.37305 3.75021 6.76184 3.94664 6.25226 4.31191C5.74268 4.67717 5.36034 5.19291 5.15897 5.78666C4.9576 6.38041 4.94731 7.02233 5.12955 7.62223C5.31179 8.22212 5.67741 8.74985 6.17502 9.13126C5.20285 9.56286 4.4147 10.3245 3.95002 11.2813C3.91305 11.3573 3.89649 11.4416 3.90197 11.526C3.90745 11.6104 3.93477 11.6919 3.98127 11.7625C4.02454 11.8349 4.08588 11.8949 4.15928 11.9366C4.23268 11.9782 4.31564 12 4.40002 12H11.6C11.6844 12 11.7674 11.9782 11.8408 11.9366C11.9142 11.8949 11.9755 11.8349 12.0188 11.7625C12.0653 11.6919 12.0926 11.6104 12.0981 11.526C12.1036 11.4416 12.087 11.3573 12.05 11.2813C11.5853 10.3245 10.7972 9.56286 9.82502 9.13126V9.13126Z" fill="#5D6671"/>
</svg>
