<svg width="11" height="14" viewBox="0 0 11 14" fill="none" xmlns="http://www.w3.org/2000/svg">
<path d="M5.33333 4V0H1.33333C0.979711 0 0.640573 0.140476 0.390524 0.390524C0.140476 0.640573 0 0.979711 0 1.33333V12C0 12.3536 0.140476 12.6928 0.390524 12.9428C0.640573 13.1929 0.979711 13.3333 1.33333 13.3333H9.33333C9.68696 13.3333 10.0261 13.1929 10.2761 12.9428C10.5262 12.6928 10.6667 12.3536 10.6667 12V5.33333H6.66667C6.31305 5.33333 5.97391 5.19286 5.72386 4.94281C5.47381 4.69276 5.33333 4.35362 5.33333 4ZM2 6.83333C2 6.70073 2.05268 6.57355 2.14645 6.47978C2.24021 6.38601 2.36739 6.33333 2.5 6.33333C2.63261 6.33333 2.75978 6.38601 2.85355 6.47978C2.94732 6.57355 3 6.70073 3 6.83333C3 6.96594 2.94732 7.09312 2.85355 7.18689C2.75978 7.28065 2.63261 7.33333 2.5 7.33333C2.36739 7.33333 2.24021 7.28065 2.14645 7.18689C2.05268 7.09312 2 6.96594 2 6.83333ZM2 8.83333C2 8.70073 2.05268 8.57355 2.14645 8.47978C2.24021 8.38601 2.36739 8.33333 2.5 8.33333C2.63261 8.33333 2.75978 8.38601 2.85355 8.47978C2.94732 8.57355 3 8.70073 3 8.83333C3 8.96594 2.94732 9.09312 2.85355 9.18689C2.75978 9.28065 2.63261 9.33333 2.5 9.33333C2.36739 9.33333 2.24021 9.28065 2.14645 9.18689C2.05268 9.09312 2 8.96594 2 8.83333ZM2 10.8333C2 10.7007 2.05268 10.5735 2.14645 10.4798C2.24021 10.386 2.36739 10.3333 2.5 10.3333C2.63261 10.3333 2.75978 10.386 2.85355 10.4798C2.94732 10.5735 3 10.7007 3 10.8333C3 10.9659 2.94732 11.0931 2.85355 11.1869C2.75978 11.2807 2.63261 11.3333 2.5 11.3333C2.36739 11.3333 2.24021 11.2807 2.14645 11.1869C2.05268 11.0931 2 10.9659 2 10.8333ZM4 6.83333C4 6.70073 4.05268 6.57355 4.14645 6.47978C4.24022 6.38601 4.36739 6.33333 4.5 6.33333H8.16667C8.29928 6.33333 8.42645 6.38601 8.52022 6.47978C8.61399 6.57355 8.66667 6.70073 8.66667 6.83333C8.66667 6.96594 8.61399 7.09312 8.52022 7.18689C8.42645 7.28065 8.29928 7.33333 8.16667 7.33333H4.5C4.36739 7.33333 4.24022 7.28065 4.14645 7.18689C4.05268 7.09312 4 6.96594 4 6.83333ZM4 8.83333C4 8.70073 4.05268 8.57355 4.14645 8.47978C4.24022 8.38601 4.36739 8.33333 4.5 8.33333H8.16667C8.29928 8.33333 8.42645 8.38601 8.52022 8.47978C8.61399 8.57355 8.66667 8.70073 8.66667 8.83333C8.66667 8.96594 8.61399 9.09312 8.52022 9.18689C8.42645 9.28065 8.29928 9.33333 8.16667 9.33333H4.5C4.36739 9.33333 4.24022 9.28065 4.14645 9.18689C4.05268 9.09312 4 8.96594 4 8.83333ZM4 10.8333C4 10.7007 4.05268 10.5735 4.14645 10.4798C4.24022 10.386 4.36739 10.3333 4.5 10.3333H8.16667C8.29928 10.3333 8.42645 10.386 8.52022 10.4798C8.61399 10.5735 8.66667 10.7007 8.66667 10.8333C8.66667 10.9659 8.61399 11.0931 8.52022 11.1869C8.42645 11.2807 8.29928 11.3333 8.16667 11.3333H4.5C4.36739 11.3333 4.24022 11.2807 4.14645 11.1869C4.05268 11.0931 4 10.9659 4 10.8333ZM6.33333 4V0.333333L10.3333 4.33333H6.66667C6.57826 4.33333 6.49348 4.29821 6.43096 4.2357C6.36845 4.17319 6.33333 4.08841 6.33333 4Z" fill="#5D6671"/>
</svg>
