<svg width="14" height="14" viewBox="0 0 14 14" fill="none" xmlns="http://www.w3.org/2000/svg">
<path d="M5.16672 13.6667L4.90005 11.5333C4.7556 11.4778 4.6196 11.4111 4.49205 11.3333C4.36405 11.2556 4.23894 11.1722 4.11672 11.0833L2.13338 11.9167L0.300049 8.75001L2.01672 7.45001C2.0056 7.37223 2.00005 7.29712 2.00005 7.22468V6.77468C2.00005 6.70268 2.0056 6.62779 2.01672 6.55001L0.300049 5.25001L2.13338 2.08334L4.11672 2.91668C4.23894 2.82779 4.36672 2.74445 4.50005 2.66668C4.63338 2.5889 4.76672 2.52223 4.90005 2.46668L5.16672 0.333344H8.83338L9.10005 2.46668C9.24449 2.52223 9.38071 2.5889 9.50871 2.66668C9.63627 2.74445 9.76116 2.82779 9.88338 2.91668L11.8667 2.08334L13.7 5.25001L11.9834 6.55001C11.9945 6.62779 12 6.70268 12 6.77468V7.22468C12 7.29712 11.9889 7.37223 11.9667 7.45001L13.6834 8.75001L11.85 11.9167L9.88338 11.0833C9.76116 11.1722 9.63338 11.2556 9.50005 11.3333C9.36672 11.4111 9.23338 11.4778 9.10005 11.5333L8.83338 13.6667H5.16672ZM7.03338 9.33334C7.67783 9.33334 8.22783 9.10557 8.68338 8.65001C9.13894 8.19445 9.36672 7.64445 9.36672 7.00001C9.36672 6.35557 9.13894 5.80557 8.68338 5.35001C8.22783 4.89445 7.67783 4.66668 7.03338 4.66668C6.37783 4.66668 5.82494 4.89445 5.37472 5.35001C4.92494 5.80557 4.70005 6.35557 4.70005 7.00001C4.70005 7.64445 4.92494 8.19445 5.37472 8.65001C5.82494 9.10557 6.37783 9.33334 7.03338 9.33334Z" fill="#5D6671"/>
</svg>
