<svg width="18" height="12" viewBox="0 0 18 12" fill="none" xmlns="http://www.w3.org/2000/svg">
<path fill-rule="evenodd" clip-rule="evenodd" d="M0.25 6C0.25 5.83424 0.315848 5.67526 0.433058 5.55805C0.550268 5.44084 0.70924 5.375 0.875 5.375H15.6163L11.6825 1.4425C11.5651 1.32514 11.4992 1.16597 11.4992 0.999996C11.4992 0.834026 11.5651 0.674854 11.6825 0.557496C11.7999 0.440138 11.959 0.374207 12.125 0.374207C12.291 0.374207 12.4501 0.440138 12.5675 0.557496L17.5675 5.5575C17.6257 5.61555 17.6719 5.68452 17.7034 5.76045C17.7349 5.83639 17.7511 5.91779 17.7511 6C17.7511 6.0822 17.7349 6.16361 17.7034 6.23954C17.6719 6.31547 17.6257 6.38444 17.5675 6.4425L12.5675 11.4425C12.4501 11.5599 12.291 11.6258 12.125 11.6258C11.959 11.6258 11.7999 11.5599 11.6825 11.4425C11.5651 11.3251 11.4992 11.166 11.4992 11C11.4992 10.834 11.5651 10.6749 11.6825 10.5575L15.6163 6.625H0.875C0.70924 6.625 0.550268 6.55915 0.433058 6.44194C0.315848 6.32473 0.25 6.16576 0.25 6Z" fill="#5D6671"/>
</svg>
