<svg width="23" height="20" viewBox="0 0 23 20" fill="none" xmlns="http://www.w3.org/2000/svg">
<path d="M1.69128 17.1205L2.67731 18.8236C2.8822 19.1822 3.1767 19.4639 3.52246 19.6688C4.51285 18.4117 5.20211 17.447 5.59058 16.7747C5.98473 16.0926 6.46919 15.0254 7.04395 13.5734C5.49495 13.3695 4.32115 13.2676 3.52255 13.2676C2.756 13.2676 1.5822 13.3695 0.000976562 13.5734C0.000976562 13.9704 0.103422 14.3673 0.308313 14.7259L1.69128 17.1205Z" fill="#0066DA"/>
<path d="M18.8377 19.6688C19.1836 19.4639 19.4781 19.1822 19.6829 18.8236L20.0927 18.1194L22.052 14.7259C22.2531 14.3751 22.359 13.9778 22.3592 13.5734C20.7688 13.3695 19.5972 13.2676 18.8442 13.2676C18.035 13.2676 16.8633 13.3695 15.3291 13.5734C15.897 15.0333 16.3751 16.1005 16.7633 16.7747C17.1549 17.455 17.8463 18.4196 18.8377 19.6688Z" fill="#EA4335"/>
<path d="M11.1801 6.40271C12.3259 5.01886 13.1156 3.9517 13.5491 3.2014C13.8981 2.5972 14.2823 1.63249 14.7015 0.307336C14.3558 0.102445 13.9588 0 13.5491 0H8.81106C8.40128 0 8.00442 0.115284 7.65857 0.307336C8.19184 1.82716 8.64442 2.90882 9.01612 3.55223C9.42695 4.26332 10.1483 5.21345 11.1801 6.40271Z" fill="#00832D"/>
<path d="M15.3163 13.5742H7.04398L3.52258 19.6696C3.86826 19.8745 4.2652 19.9769 4.67498 19.9769H17.6853C18.0951 19.9769 18.4921 19.8616 18.8378 19.6695L15.3164 13.5742H15.3163Z" fill="#2684FC"/>
<path d="M11.1801 6.4029L7.65871 0.307617C7.31285 0.512508 7.01836 0.794167 6.81347 1.15277L0.308313 12.4215C0.107188 12.7723 0.00124228 13.1696 0.000976562 13.574H7.04395L11.1802 6.4029H11.1801Z" fill="#00AC47"/>
<path d="M18.7994 6.78718L15.5467 1.15277C15.3419 0.794167 15.0473 0.512508 14.7016 0.307617L11.1802 6.40299L15.3162 13.5741H22.3465C22.3465 13.177 22.244 12.7802 22.0391 12.4216L18.7994 6.78718Z" fill="#FFBA00"/>
</svg>
