<svg width="22" height="22" viewBox="0 0 22 22" fill="none" xmlns="http://www.w3.org/2000/svg">
<path d="M21.0235 10.3844L11.5568 0.917635L10.6391 0L3.51296 7.12619L0.254777 10.3844C0.0916352 10.5477 0 10.7691 0 11C0 11.2309 0.0916352 11.4523 0.254777 11.6156L6.76534 18.1262L10.6391 22L17.7653 14.8738L17.8757 14.7635L21.0235 11.6156C21.1867 11.4523 21.2783 11.2309 21.2783 11C21.2783 10.7691 21.1867 10.5477 21.0235 10.3844ZM10.6391 14.2524L7.38677 11L10.6391 7.74762L13.8915 11L10.6391 14.2524Z" fill="#2684FF"/>
<path d="M10.6388 7.74786C9.61584 6.72482 9.03925 5.3386 9.0349 3.8919C9.03055 2.4452 9.59878 1.05554 10.6155 0.0263672L3.49805 7.14094L7.37186 11.0148L10.6388 7.74786Z" fill="url(#paint0_linear_2349_11218)"/>
<path d="M13.8998 10.9912L10.6387 14.2523C11.1476 14.7609 11.5513 15.3648 11.8267 16.0295C12.1022 16.6942 12.2439 17.4066 12.2439 18.1261C12.2439 18.8456 12.1022 19.558 11.8267 20.2227C11.5513 20.8874 11.1476 21.4913 10.6387 21.9999L17.7736 14.865L13.8998 10.9912Z" fill="url(#paint1_linear_2349_11218)"/>
<defs>
<linearGradient id="paint0_linear_2349_11218" x1="10.058" y1="4.45773" x2="5.51626" y2="8.99944" gradientUnits="userSpaceOnUse">
<stop offset="0.18" stop-color="#0052CC"/>
<stop offset="1" stop-color="#2684FF"/>
</linearGradient>
<linearGradient id="paint1_linear_2349_11218" x1="287.33" y1="674.596" x2="444.192" y2="572.932" gradientUnits="userSpaceOnUse">
<stop offset="0.18" stop-color="#0052CC"/>
<stop offset="1" stop-color="#2684FF"/>
</linearGradient>
</defs>
</svg>
