<svg width="20" height="20" viewBox="0 0 20 20" fill="none" xmlns="http://www.w3.org/2000/svg">
<path d="M19.7605 9.44034L10.8625 0.834213L10 0L3.30192 6.47835L0.239471 9.44034C0.0861302 9.58883 0 9.79013 0 10C0 10.2099 0.0861302 10.4112 0.239471 10.5597L6.35891 16.4784L10 20L16.6981 13.5216L16.8018 13.4213L19.7605 10.5597C19.9139 10.4112 20 10.2099 20 10C20 9.79013 19.9139 9.58883 19.7605 9.44034ZM10 12.9567L6.94301 10L10 7.04329L13.057 10L10 12.9567Z" fill="#2684FF"/>
<path d="M9.99981 7.0434C9.03835 6.11336 8.4964 4.85317 8.49231 3.53798C8.48822 2.2228 9.02232 0.959474 9.97798 0.0238609L3.28809 6.49165L6.92918 10.0133L9.99981 7.0434Z" fill="url(#paint0_linear_872_9051)"/>
<path d="M13.0652 9.9921L10 12.9567C10.4783 13.4191 10.8578 13.9681 11.1167 14.5724C11.3756 15.1766 11.5088 15.8243 11.5088 16.4784C11.5088 17.1325 11.3756 17.7801 11.1167 18.3844C10.8578 18.9886 10.4783 19.5376 10 20L16.7063 13.5137L13.0652 9.9921Z" fill="url(#paint1_linear_872_9051)"/>
<defs>
<linearGradient id="paint0_linear_872_9051" x1="9.45392" y1="4.05237" x2="5.32739" y2="8.31886" gradientUnits="userSpaceOnUse">
<stop offset="0.18" stop-color="#0052CC"/>
<stop offset="1" stop-color="#2684FF"/>
</linearGradient>
<linearGradient id="paint1_linear_872_9051" x1="270.069" y1="613.27" x2="414.559" y2="516.448" gradientUnits="userSpaceOnUse">
<stop offset="0.18" stop-color="#0052CC"/>
<stop offset="1" stop-color="#2684FF"/>
</linearGradient>
</defs>
</svg>
