<svg width="22" height="22" viewBox="0 0 22 22" fill="none" xmlns="http://www.w3.org/2000/svg">
<path d="M10.9994 16.9102C9.63567 16.9097 8.31846 16.4146 7.29208 15.5166C6.26575 14.6187 5.59996 13.379 5.41829 12.0274C5.23658 10.6758 5.55133 9.30429 6.30408 8.16716C7.05688 7.03008 8.19658 6.20462 9.51171 5.844V7.48362C8.62721 7.83037 7.89154 8.47512 7.43175 9.3065C6.97192 10.1379 6.81687 11.1037 6.99333 12.0372C7.16979 12.9708 7.66667 13.8134 8.39817 14.4196C9.12971 15.0258 10.05 15.3576 11 15.3576C11.9501 15.3576 12.8703 15.0258 13.6018 14.4196C14.3333 13.8134 14.8303 12.9708 15.0067 12.0372C15.1831 11.1037 15.0281 10.1379 14.5683 9.3065C14.1085 8.47512 13.3728 7.83037 12.4883 7.48362V5.844C13.8035 6.20466 14.9433 7.03021 15.6961 8.16741C16.4488 9.30466 16.7635 10.6764 16.5817 12.028C16.3998 13.3797 15.7338 14.6194 14.7072 15.5172C13.6806 16.4151 12.3632 16.91 10.9994 16.9102ZM10.1909 3.96222H11.8091V11.9888H10.1909V3.96222ZM10.9994 7.23201e-08C8.82379 0.000124797 6.69712 0.645371 4.88829 1.85414C3.07942 3.06291 1.66962 4.78091 0.83715 6.79091C0.00468183 8.80091 -0.213065 11.0126 0.211444 13.1464C0.635954 15.2801 1.68365 17.2401 3.22205 18.7784C4.76046 20.3167 6.72046 21.3643 8.85425 21.7887C10.988 22.2131 13.1997 21.9952 15.2097 21.1626C17.2196 20.33 18.9375 18.9201 20.1462 17.1112C21.3549 15.3023 22 13.1756 22 11C22.0001 9.55537 21.7156 8.12491 21.1628 6.79025C20.61 5.45558 19.7997 4.24287 18.7781 3.22142C17.7566 2.19995 16.5439 1.38971 15.2092 0.836975C13.8745 0.28424 12.444 -0.000165578 10.9994 7.23201e-08Z" fill="#E57CD8"/>
</svg>
